<svg width="76" height="50" viewBox="0 0 76 50" fill="none" xmlns="http://www.w3.org/2000/svg" aria-label="{a}">
  <path d="M22.04 40.52C20.7813 40.52 19.6933 40.3067 18.776 39.88C17.88 39.4747 17.1973 38.8667 16.728 38.056C16.2587 37.2667 16.056 36.3173 16.12 35.208L16.44 29.96C16.504 28.8293 16.3333 28.0187 15.928 27.528C15.5227 27.016 14.6267 26.76 13.24 26.76H9.72V24.2H13.24C14.6267 24.2 15.5227 23.9547 15.928 23.464C16.3333 22.952 16.504 22.1307 16.44 21L16.12 15.752C16.056 14.6213 16.2587 13.6613 16.728 12.872C17.1973 12.0827 17.88 11.4853 18.776 11.08C19.6933 10.6533 20.7813 10.44 22.04 10.44H23.48V13H22.04C21.0373 13 20.2693 13.2347 19.736 13.704C19.2027 14.152 18.9573 14.8347 19 15.752L19.32 21C19.4053 22.3867 19.0747 23.496 18.328 24.328C17.5813 25.1387 16.5253 25.544 15.16 25.544V25.384C16.504 25.384 17.5493 25.8 18.296 26.632C19.064 27.464 19.4053 28.5733 19.32 29.96L19 35.208C18.9573 36.1253 19.2027 36.808 19.736 37.256C20.2693 37.7253 21.0373 37.96 22.04 37.96H23.48V40.52H22.04Z" fill="var(--logo-brace, #18181b)"/>
  <path d="M40.008 25.88C38.216 26.6907 36.8613 27.448 35.944 28.152C35.048 28.8347 34.6 29.5493 34.6 30.296C34.6 30.9147 34.7707 31.4053 35.112 31.768C35.4533 32.1307 35.88 32.312 36.392 32.312C36.904 32.312 37.384 32.2267 37.832 32.056C38.28 31.864 38.664 31.6187 38.984 31.32C39.304 31.0213 39.5493 30.6693 39.72 30.264C39.912 29.8373 40.008 29.3893 40.008 28.92V25.88ZM40.008 24.184V22.84C40.008 21.6027 39.784 20.7067 39.336 20.152C38.9093 19.576 38.2373 19.288 37.32 19.288C36.7013 19.288 36.232 19.4587 35.912 19.8C35.592 20.12 35.2933 20.664 35.016 21.432C34.824 21.9653 34.5467 22.3813 34.184 22.68C33.8427 22.9787 33.3627 23.128 32.744 23.128C32.1467 23.128 31.688 22.9467 31.368 22.584C31.048 22.2213 30.888 21.7093 30.888 21.048C30.888 20.024 31.4427 19.2133 32.552 18.616C33.6827 18.0187 35.3787 17.72 37.64 17.72C40.0293 17.72 41.736 18.1573 42.76 19.032C43.784 19.8853 44.296 21.3253 44.296 23.352V30.36C44.296 32.1733 44.6587 33.08 45.384 33.08C45.7893 33.08 46.1627 32.9413 46.504 32.664L46.984 33.592C46.6853 34.1253 46.216 34.552 45.576 34.872C44.9573 35.1707 44.2533 35.32 43.464 35.32C42.4827 35.32 41.736 35.0213 41.224 34.424C40.712 33.8267 40.456 32.984 40.456 31.896H40.296C39.6773 33.0053 38.8773 33.848 37.896 34.424C36.9147 35 35.7947 35.288 34.536 35.288C33.192 35.288 32.1147 34.9147 31.304 34.168C30.4933 33.4 30.088 32.408 30.088 31.192C30.088 30.2533 30.504 29.3787 31.336 28.568C32.168 27.736 33.5547 26.9253 35.496 26.136L40.008 24.184Z" fill="var(--logo-letter, #18181b)"/>
  <path d="M52.72 40.52V37.96H54.16C55.1627 37.96 55.9307 37.7253 56.464 37.256C56.9973 36.808 57.2427 36.1253 57.2 35.208L56.88 29.96C56.7947 28.5733 57.1253 27.464 57.872 26.632C58.64 25.8 59.696 25.384 61.04 25.384V25.544C59.6747 25.544 58.6187 25.1387 57.872 24.328C57.1253 23.496 56.7947 22.3867 56.88 21L57.2 15.752C57.2427 14.8347 56.9973 14.152 56.464 13.704C55.9307 13.2347 55.1627 13 54.16 13H52.72V10.44H54.16C55.4187 10.44 56.496 10.6533 57.392 11.08C58.3093 11.4853 59.0027 12.0827 59.472 12.872C59.9413 13.6613 60.144 14.6213 60.08 15.752L59.76 21C59.696 22.1307 59.8667 22.952 60.272 23.464C60.6773 23.9547 61.5733 24.2 62.96 24.2H66.48V26.76H62.96C61.5947 26.76 60.6987 27.016 60.272 27.528C59.8667 28.0187 59.696 28.8293 59.76 29.96L60.08 35.208C60.144 36.3173 59.9413 37.2667 59.472 38.056C59.0027 38.8667 58.3093 39.4747 57.392 39.88C56.496 40.3067 55.4187 40.52 54.16 40.52H52.72Z" fill="var(--logo-brace, #18181b)"/>
</svg>
